<?xml version="1.0"?>
<svg xmlns="http://www.w3.org/2000/svg" xmlns:xlink="http://www.w3.org/1999/xlink" width="275" height="225.6"
	 viewBox="0 0 275 225.6" enable-background="new 0 0 275 225.6" xml:space="preserve">
<g>
	<path fill="#002F67" d="M197.4,81c2.6,0,7.1-0.9,8.1-6.5c-0.2,0-0.4,0-0.7,0c-2.1,0-5.4,0.6-7.1,3.7c0.5-1.4,0.9-2.9,1.3-4.3
		c0,0.1-0.1,0.3-0.1,0.4h0c1.7,0,7.1-0.5,7.9-6.6h0c-1.8,0-5.8,0.5-7.4,4.4c0.4-1.4,0.7-2.8,1-4.2c0.6-0.1,1.7-0.4,2.8-1
		c2-1.2,3-3,2.9-5.5c-1.1,0.2-3.7,0.8-5,3.2c0.2-0.9,0.3-1.7,0.5-2.5c1.6-1.6,4.8-5.7,0.5-9.7c0,0,0,0,0,0.1c0,0,0,0,0,0
		c0,0.2-1.4,20.4-12.3,38.3c-8.3,13.6-24,31.2-52.4,38.4c-28.4-7.1-44.1-24.8-52.4-38.4C74.2,73.1,72.8,52.8,72.8,52.6c0,0,0,0,0,0
		c0,0,0-0.1,0-0.1c-4.3,4-1.1,8.1,0.5,9.7c0.1,0.8,0.3,1.6,0.5,2.5c-1.3-2.4-3.9-3.1-5-3.2c0,2.5,0.9,4.3,2.9,5.5
		c1.1,0.6,2.2,0.9,2.8,1c0.3,1.3,0.6,2.7,1,4.2c-1.6-3.9-5.5-4.4-7.4-4.4h0c0.8,6.1,6.2,6.6,7.9,6.6h0c0-0.2-0.1-0.3-0.1-0.4
		c0.4,1.4,0.8,2.8,1.3,4.3c-1.8-3.1-5.1-3.7-7.1-3.7c-0.3,0-0.5,0-0.7,0c1.1,5.6,5.5,6.5,8.1,6.5c0.2,0,0.5,0,0.6,0
		c0.5,1.3,1,2.7,1.6,4c-1.8-2.4-4.4-3-6.5-3c-1,0-1.8,0.1-2.3,0.2c1.6,4.7,5.1,5.7,7.9,5.7c0.9,0,1.6-0.1,2.1-0.2
		c0.9,1.8,1.8,3.7,2.8,5.4c-2.1-2.7-4.8-3.4-6.9-3.4c-1.6,0-3,0.4-3.7,0.6c2,4.6,5.6,5.6,8.2,5.6c1.6,0,3-0.4,3.7-0.6
		c0-0.1-0.1-0.2-0.1-0.3c1,1.7,2.2,3.5,3.4,5.3c-1.7-1.8-3.9-2.7-6.4-2.7c-2,0-3.8,0.6-4.6,0.9c1.8,3.6,4.7,5.4,8.4,5.4
		c2.1,0,3.8-0.6,4.6-0.9c0-0.1-0.1-0.1-0.1-0.2c1.2,1.7,2.6,3.4,4.1,5.1c-1.7-1.4-3.7-2.1-5.9-2.1c-2.9,0-5.4,1.3-6.3,1.9
		c2.1,2.9,4.8,4.3,7.9,4.3c2.9,0,5.3-1.2,6.3-1.8c1.5,1.6,3.1,3.3,4.9,4.8c-1.8-1.4-3.8-2.1-5.9-2.1c-3.6,0-6.5,2-7.5,2.7
		c2.3,2.5,4.9,3.8,7.8,3.8c3.6,0,6.5-2,7.5-2.7c-0.1-0.1-0.2-0.2-0.4-0.4c6.6,5.8,14.9,11,25.4,14.8c-3.3,0.5-6.7,0.9-10.2,1.1
		l2.9,4.5c6-0.5,11.6-1.5,16.7-2.7c5.1,1.3,10.7,2.2,16.7,2.7l2.9-4.5c-3.6-0.2-6.9-0.6-10.2-1.1c10.4-3.8,18.7-9.1,25.4-14.8
		c-0.1,0.1-0.2,0.2-0.4,0.4c1,0.8,4,2.7,7.5,2.7c2.9,0,5.5-1.3,7.8-3.8c-1-0.8-4-2.7-7.5-2.7c-2.1,0-4.1,0.7-5.9,2.1
		c1.7-1.6,3.4-3.2,4.9-4.8c1,0.6,3.4,1.8,6.3,1.8h0c3.1,0,5.8-1.5,7.9-4.3c-0.9-0.6-3.4-1.9-6.3-1.9c-2.2,0-4.1,0.7-5.8,2.1
		c1.5-1.7,2.8-3.4,4.1-5.1c0,0.1-0.1,0.1-0.1,0.2c0.8,0.3,2.5,0.9,4.6,0.9c3.7,0,6.5-1.8,8.4-5.4c-0.8-0.3-2.5-0.9-4.6-0.9
		c-2.6,0-4.7,0.9-6.5,2.7c1.3-1.8,2.4-3.6,3.4-5.3c0,0.1-0.1,0.2-0.1,0.3c0.7,0.2,2.1,0.6,3.7,0.6c2.7,0,6.2-1,8.2-5.6
		c-0.7-0.2-2.1-0.6-3.7-0.6c-2.1,0-4.9,0.6-6.9,3.4c1-1.8,2-3.6,2.8-5.4c0.5,0.1,1.2,0.2,2.1,0.2c2.7,0,6.3-1,7.9-5.7
		c-0.5-0.1-1.3-0.2-2.3-0.2c-2.1,0-4.7,0.6-6.5,3c0.6-1.3,1.1-2.7,1.6-4C196.9,81,197.2,81,197.4,81"/>
	<path fill="#FFFFFF" d="M177.1,71.6c-7.6,21.5-20.5,32-39.5,32h0c-19,0-31.9-10.6-39.6-32.3c-3.9-11-5.5-22.7-6.2-31.2h12.4
		l2.5-7.8c5-15.4,19.7-20.9,30.8-20.9h0.1c11,0,25.6,5.5,30.5,20.8l2.5,7.8l12.5,0C182.4,51.7,180.3,62.5,177.1,71.6"/>
	<path fill="#648D3C" d="M98,71.3c-1.2-3.4-2.2-6.9-3-10.4h31.9v41.4C113.6,98.9,104.1,88.7,98,71.3"/>
	<path fill="#FAA61A" d="M134.3,39.7l1.6-28.6c-0.7,0-1.5,0.1-2.2,0.2l-0.2,0v42.9h48.2l0-0.2c0.1-0.8,0.3-1.7,0.4-2.5l-34,1.9
		c-0.1-0.4-0.2-0.9-0.4-1.3l35-5.2c0.2-1.9,0.4-3.9,0.6-5.9l-36.1,9.6c-0.1-0.3-0.3-0.7-0.4-1l27.9-9.8l-3.9,0l-1-3L146,48.2
		c-0.2-0.3-0.4-0.7-0.6-1l23.4-13.9l-0.4-1.2c-0.4-1.1-0.8-2.2-1.2-3.2l-22.7,17.1c-0.2-0.3-0.5-0.6-0.8-0.9l21.7-19.4
		c-0.9-1.4-1.8-2.7-2.9-3.9L142.6,44c-0.3-0.3-0.6-0.6-1-0.8l18-24.3c-1.3-1.1-2.6-2-4-2.8l-15.2,26.3c-0.3-0.2-0.6-0.4-0.9-0.6
		l13.1-27.3c-1.5-0.7-3-1.3-4.6-1.8L138.1,41c-0.4-0.2-0.8-0.3-1.1-0.5l7.4-28.8c-1.6-0.3-3.2-0.5-4.8-0.6L135.5,40
		C135.1,39.9,134.7,39.8,134.3,39.7"/>
	<path fill="#EE3129" d="M137.6,103.8c-1.3,0-2.5-0.1-3.8-0.2l-0.2,0v-43h46.9l-0.1,0.3c-0.9,3.8-1.9,7.4-3.1,10.7
		C169.7,93.3,156.7,103.8,137.6,103.8L137.6,103.8z"/>
	<path fill="#FFCA28" d="M93.3,54.2l0-0.2c-0.8-4.5-1.4-9.2-1.8-14l0-0.2H104l2.5-7.7c4.1-12.7,14.4-17.6,20.3-19.4l0.3-0.1v41.6
		H93.3z"/>
	<path fill="#002F67" d="M172.4,37.7l-2-6.3C165,15,149.5,9.1,137.7,9h-0.1c-11.9,0-27.6,5.9-33,22.5l-2,6.3H89.3
		c0.6,9.1,2.2,22,6.5,34.3c8,22.8,21.7,33.8,41.7,33.8h0c20.1,0,33.7-11,41.6-33.5c3.5-9.9,5.7-21.9,6.4-34.6L172.4,37.7z
		 M137.7,11.3c11,0,25.6,5.5,30.5,20.8l2.5,7.8l12.5,0c-0.3,4.8-0.9,9.5-1.7,14h-47.7V11.5c1.3-0.1,2.6-0.2,3.8-0.2H137.7z
		 M104.2,40l2.5-7.8c3.5-10.7,11.7-16.6,20.1-19.2v41H93.5c-0.9-5.1-1.4-9.9-1.8-13.9H104.2z M98,71.3c-1.2-3.4-2.2-6.9-3-10.4h31.9
		v41.4C113.6,98.9,104.1,88.6,98,71.3 M177.1,71.6c-7.6,21.5-20.5,32-39.5,32h0c-1.3,0-2.6-0.1-3.8-0.2V60.9H179l1.1,0
		C179.3,64.7,178.2,68.3,177.1,71.6"/>
	<path fill="#002F67" d="M179,28.7C172.2,7.7,152.7,0,137.6,0h0h0h0C122.4,0,102.7,7.7,96,28.7H80c0,8.6,0.3,86.2,57.6,86.2h0h0
		c57.6,0,57.3-77.6,57.3-86.2L179,28.7z M137.6,110.4L137.6,110.4c-21.9,0-37.4-12.4-46-36.8c-5.3-15.1-6.7-31.1-7-40.3h14.7l1-3.1
		c6.1-18.9,23.9-25.6,37.3-25.6h0.1c13.3,0.1,30.9,6.8,37,25.5l1,3.1l14.7,0c-0.4,14.8-2.8,29.1-6.8,40.6
		C174.9,98.1,159.5,110.4,137.6,110.4"/>
	<path fill="#FFFFFF" d="M126.8,63.3H95.5c0.2,0.8,0.4,1.6,0.7,2.4h30.7V63.3z"/>
	<path fill="#FFFFFF" d="M97.7,70.5h29.2v-2.4H96.9C97.1,68.9,97.4,69.7,97.7,70.5"/>
	<path fill="#FFFFFF" d="M99.5,75.3h27.4v-2.4H98.5C98.8,73.7,99.2,74.5,99.5,75.3"/>
	<path fill="#FFFFFF" d="M101.6,80.1h25.2v-2.4h-26.3C100.9,78.5,101.2,79.3,101.6,80.1"/>
	<path fill="#FFFFFF" d="M104.3,84.8h22.5v-2.4h-23.9C103.4,83.3,103.8,84.1,104.3,84.8"/>
	<path fill="#FFFFFF" d="M107.7,89.6h19.2v-2.4h-20.9C106.5,88.1,107.1,88.9,107.7,89.6"/>
	<path fill="#FFFFFF" d="M112.2,94.4h14.6V92h-17.1C110.5,92.9,111.4,93.7,112.2,94.4"/>
	<path fill="#FFFFFF" d="M119,99.2h7.9v-2.4h-11.7C116.4,97.7,117.7,98.5,119,99.2"/>
	<path fill="#FFFFFF" d="M126.8,102.3v-0.7h-2.3C125.3,101.9,126,102.1,126.8,102.3"/>
	<path fill="#FFFFFF" d="M131.5,56.3V11.8c-0.8,0.1-1.6,0.3-2.4,0.5v43.9H93.9c0.2,0.8,0.3,1.6,0.5,2.4h34.7v44.2
		c0.8,0.2,1.6,0.3,2.4,0.4V58.6h49.1c0.2-0.8,0.3-1.6,0.5-2.4H131.5z"/>
	<path fill="#002F67" d="M0,161.4c0-0.4,0.3-0.7,0.7-0.7h3.6c0.4,0,0.7,0.4,0.7,0.7v16c0,3.3,2.2,5.9,5.5,5.9c3.3,0,5.5-2.6,5.5-5.9
		v-16c0-0.4,0.3-0.7,0.7-0.7h3.6c0.4,0,0.7,0.4,0.7,0.7v16.2c0,5.9-4.6,10.7-10.5,10.7c-5.9,0-10.5-4.8-10.5-10.7V161.4z"/>
	<path fill="#002F67" d="M27.9,160.9c0-0.4,0.3-0.7,0.7-0.7h0.9l15.7,17.2h0v-16.1c0-0.4,0.3-0.7,0.7-0.7h3.5c0.4,0,0.7,0.4,0.7,0.7
		v26.2c0,0.4-0.3,0.7-0.7,0.7h-0.9l-15.8-17.9h0v16.8c0,0.4-0.3,0.7-0.7,0.7h-3.4c-0.4,0-0.7-0.4-0.7-0.7V160.9z"/>
	<path fill="#002F67" d="M57.4,161.4c0-0.4,0.3-0.7,0.7-0.7h3.5c0.4,0,0.7,0.4,0.7,0.7v25.8c0,0.4-0.3,0.7-0.7,0.7h-3.5
		c-0.4,0-0.7-0.4-0.7-0.7V161.4z"/>
	<path fill="#002F67" d="M66.2,161.6c-0.2-0.5,0.1-1,0.6-1h3.9c0.3,0,0.6,0.2,0.6,0.4l7.2,16.8h0.3l7.2-16.8
		c0.1-0.2,0.3-0.4,0.6-0.4h3.8c0.6,0,0.9,0.5,0.6,1l-11.7,26.2c-0.1,0.2-0.3,0.4-0.6,0.4h-0.4c-0.3,0-0.5-0.2-0.6-0.4L66.2,161.6z"
		/>
	<path fill="#002F67" d="M95,161.4c0-0.4,0.3-0.7,0.7-0.7h15.4c0.4,0,0.7,0.4,0.7,0.7v3.2c0,0.4-0.3,0.7-0.7,0.7H99.9v6.4h9.3
		c0.4,0,0.7,0.4,0.7,0.7v3.2c0,0.4-0.3,0.7-0.7,0.7h-9.3v6.8h11.2c0.4,0,0.7,0.3,0.7,0.7v3.2c0,0.4-0.3,0.7-0.7,0.7H95.7
		c-0.4,0-0.7-0.4-0.7-0.7V161.4z"/>
	<path fill="#002F67" d="M117.5,161.4c0-0.4,0.3-0.7,0.7-0.7H129c4.5,0,8.2,3.7,8.2,8.4c0,3.6-2.3,6.5-5.6,7.9l5.2,9.9
		c0.3,0.5,0,1.1-0.6,1.1h-4c-0.3,0-0.5-0.2-0.6-0.4l-5-10.3h-4.2v9.9c0,0.4-0.3,0.7-0.7,0.7h-3.5c-0.4,0-0.7-0.4-0.7-0.7V161.4z
		 M128.6,173.1c2,0,3.7-1.8,3.7-4c0-2.1-1.7-3.8-3.7-3.8h-6.1v7.8H128.6z"/>
	<path fill="#002F67" d="M141.5,184.1l1.4-2.4c0.3-0.6,0.9-0.6,1.3-0.3c0.2,0.1,3.3,2.4,5.7,2.4c2,0,3.4-1.3,3.4-3
		c0-2-1.6-3.4-4.8-4.7c-3.5-1.5-7.1-3.8-7.1-8.4c0-3.5,2.5-7.5,8.5-7.5c3.8,0,6.8,2,7.5,2.6c0.4,0.2,0.5,0.9,0.2,1.3l-1.4,2.2
		c-0.3,0.5-0.9,0.8-1.3,0.5c-0.3-0.2-3.2-2.1-5.2-2.1c-2.2,0-3.3,1.5-3.3,2.7c0,1.8,1.4,3.1,4.5,4.4c3.7,1.5,7.9,3.8,7.9,8.8
		c0,4-3.4,7.7-8.7,7.7c-4.8,0-7.5-2.3-8.3-3C141.3,184.9,141.2,184.7,141.5,184.1"/>
	<path fill="#002F67" d="M163.9,161.4c0-0.4,0.3-0.7,0.7-0.7h3.5c0.4,0,0.7,0.4,0.7,0.7v25.8c0,0.4-0.3,0.7-0.7,0.7h-3.5
		c-0.4,0-0.7-0.4-0.7-0.7V161.4z"/>
	<path fill="#002F67" d="M179.6,165.3h-5.8c-0.4,0-0.7-0.4-0.7-0.7v-3.2c0-0.4,0.3-0.7,0.7-0.7h16.5c0.4,0,0.7,0.4,0.7,0.7v3.2
		c0,0.4-0.3,0.7-0.7,0.7h-5.8v21.9c0,0.4-0.3,0.7-0.7,0.7h-3.5c-0.4,0-0.7-0.4-0.7-0.7V165.3z"/>
	<path fill="#002F67" d="M202.4,174.8l-8.6-13c-0.3-0.5,0-1.1,0.6-1.1h3.9c0.3,0,0.5,0.2,0.6,0.4l6,9l6-9c0.1-0.2,0.3-0.4,0.6-0.4
		h3.9c0.6,0,0.9,0.6,0.6,1.1l-8.7,13v12.4c0,0.4-0.3,0.7-0.7,0.7h-3.5c-0.4,0-0.7-0.4-0.7-0.7V174.8z"/>
	<path fill="#002F67" d="M240.1,160.2c7.6,0,13.6,6.3,13.6,14.1c0,7.8-6,14-13.6,14c-7.5,0-13.5-6.2-13.5-14
		C226.5,166.5,232.5,160.2,240.1,160.2 M240.1,183.2c4.8,0,8.7-4,8.7-8.9c0-4.9-3.9-9-8.7-9c-4.8,0-8.6,4.1-8.6,9
		C231.4,179.2,235.3,183.2,240.1,183.2"/>
	<path fill="#002F67" d="M258.2,161.4c0-0.4,0.3-0.7,0.7-0.7h15.4c0.4,0,0.7,0.4,0.7,0.7v3.2c0,0.4-0.3,0.7-0.7,0.7h-11.2v7.3h9.3
		c0.4,0,0.7,0.4,0.7,0.7v3.2c0,0.4-0.3,0.7-0.7,0.7h-9.3v9.9c0,0.4-0.3,0.7-0.7,0.7h-3.5c-0.4,0-0.7-0.4-0.7-0.7V161.4z"/>
	<path fill="#002F67" d="M4.5,198.1c0-0.3,0.3-0.6,0.7-0.6h0.6c0.3,0,0.5,0.2,0.6,0.4l8.3,18.4h0.1l8.3-18.4
		c0.1-0.2,0.3-0.4,0.6-0.4h0.6c0.4,0,0.6,0.3,0.7,0.6l4.5,26.2c0.1,0.6-0.2,0.9-0.7,0.9h-3.4c-0.3,0-0.6-0.3-0.7-0.6l-2.2-14.8h-0.1
		l-6.6,15.3c-0.1,0.2-0.3,0.4-0.6,0.4h-0.7c-0.3,0-0.5-0.2-0.6-0.4l-6.7-15.3H7l-2.2,14.8c0,0.3-0.3,0.6-0.7,0.6H0.7
		c-0.5,0-0.8-0.3-0.7-0.9L4.5,198.1z"/>
	<path fill="#002F67" d="M35.5,198.7c0-0.4,0.3-0.7,0.7-0.7h8.9c4.6,0,8.5,3.9,8.5,8.6c0,4.8-3.8,8.8-8.4,8.8h-4.7v9.2
		c0,0.4-0.3,0.7-0.7,0.7h-3.5c-0.4,0-0.7-0.3-0.7-0.7V198.7z M44.8,210.6c2.1,0,3.9-1.8,3.9-4.1c0-2.1-1.8-3.8-3.9-3.8h-4.4v7.8
		H44.8z"/>
	<path fill="#002F67" d="M57.6,198.7c0-0.4,0.3-0.7,0.7-0.7h3.6c0.4,0,0.7,0.3,0.7,0.7v15.9c0,3.3,2.2,5.9,5.5,5.9
		c3.3,0,5.5-2.6,5.5-5.9v-16c0-0.4,0.3-0.7,0.7-0.7h3.6c0.4,0,0.7,0.3,0.7,0.7v16.2c0,5.9-4.6,10.7-10.5,10.7
		c-5.9,0-10.5-4.8-10.5-10.7V198.7z"/>
	<path fill="#002F67" d="M87.6,198.1c0-0.3,0.3-0.6,0.7-0.6h0.6c0.3,0,0.5,0.2,0.6,0.4l8.3,18.4h0.1l8.3-18.4
		c0.1-0.2,0.3-0.4,0.6-0.4h0.6c0.4,0,0.6,0.3,0.7,0.6l4.4,26.2c0.1,0.6-0.2,0.9-0.7,0.9h-3.4c-0.3,0-0.6-0.3-0.7-0.6l-2.2-14.8h-0.1
		l-6.6,15.3c-0.1,0.2-0.3,0.4-0.6,0.4h-0.7c-0.3,0-0.5-0.2-0.6-0.4l-6.7-15.3h-0.1l-2.2,14.8c0,0.3-0.3,0.6-0.7,0.6h-3.4
		c-0.5,0-0.8-0.3-0.7-0.9L87.6,198.1z"/>
	<path fill="#002F67" d="M116.7,224.2l11.7-26.2c0.1-0.2,0.3-0.4,0.6-0.4h0.4c0.4,0,0.5,0.2,0.6,0.4l11.6,26.2c0.2,0.5-0.1,1-0.6,1
		h-3.3c-0.6,0-0.8-0.2-1.1-0.8l-1.8-4.2h-11.3l-1.9,4.2c-0.2,0.4-0.5,0.8-1.1,0.8h-3.3C116.8,225.2,116.5,224.7,116.7,224.2
		 M133,215.9l-3.8-8.6h-0.1l-3.7,8.6H133z"/>
	<path fill="#002F67" d="M146.1,198.9c0-0.4,0.3-0.7,0.7-0.7h3.5c0.4,0,0.7,0.4,0.7,0.7v21.9h9.6c0.4,0,0.7,0.3,0.7,0.7v3.2
		c0,0.4-0.3,0.7-0.7,0.7h-13.8c-0.4,0-0.7-0.4-0.7-0.7V198.9z"/>
	<path fill="#002F67" d="M165.3,224.2l11.7-26.2c0.1-0.2,0.3-0.4,0.6-0.4h0.4c0.4,0,0.5,0.2,0.6,0.4l11.6,26.2c0.2,0.5-0.1,1-0.6,1
		h-3.3c-0.6,0-0.8-0.2-1.1-0.8l-1.8-4.2h-11.3l-1.8,4.2c-0.2,0.4-0.5,0.8-1.1,0.8H166C165.4,225.2,165.1,224.7,165.3,224.2
		 M181.6,215.9l-3.8-8.6h-0.1l-3.7,8.6H181.6z"/>
	<path fill="#002F67" d="M195.7,198.2c0-0.4,0.3-0.7,0.7-0.7h0.9l15.7,17.2h0v-16.1c0-0.4,0.3-0.7,0.7-0.7h3.5
		c0.4,0,0.7,0.3,0.7,0.7v26.2c0,0.4-0.3,0.7-0.7,0.7h-0.9l-15.8-17.9h0v16.8c0,0.4-0.3,0.7-0.7,0.7h-3.4c-0.4,0-0.7-0.3-0.7-0.7
		V198.2z"/>
	<path fill="#002F67" d="M236.5,197.5c3.4,0,6.6,1.4,9.2,3.6c0.3,0.3,0.3,0.8,0,1.1l-2.3,2.5c-0.3,0.3-0.6,0.3-1,0
		c-1.6-1.5-3.6-2.3-5.7-2.3c-4.7,0-8.5,4.2-8.5,9c0,4.8,3.7,8.9,8.5,8.9c2.1,0,3.7-0.7,4.5-1v-3.3h-3c-0.4,0-0.7-0.3-0.7-0.7v-3.1
		c0-0.4,0.3-0.7,0.7-0.7h7.2c0.4,0,0.7,0.3,0.7,0.7v10c0,0.3-0.2,0.5-0.3,0.6c0,0-3.9,2.5-9.4,2.5c-7.5,0-13.5-6.2-13.5-14
		C222.9,203.8,229,197.5,236.5,197.5"/>
	<path fill="#002F67" d="M249.9,224.2l11.7-26.2c0.1-0.2,0.3-0.4,0.6-0.4h0.4c0.4,0,0.5,0.2,0.6,0.4l11.6,26.2c0.2,0.5-0.1,1-0.6,1
		H271c-0.6,0-0.8-0.2-1.1-0.8l-1.9-4.2h-11.3l-1.8,4.2c-0.1,0.4-0.5,0.8-1.1,0.8h-3.3C250,225.2,249.7,224.7,249.9,224.2
		 M266.2,215.9l-3.8-8.6h-0.1l-3.7,8.6H266.2z"/>
</g>
</svg>
